<svg width="25" height="24" viewBox="0 0 25 24" fill="none" xmlns="http://www.w3.org/2000/svg">
<path d="M12.4555 5.6588C12.4965 4.54303 12.81 3.56297 13.3886 2.7437C13.9701 1.92028 14.9314 1.33535 16.2472 1.00391C16.256 1.04443 16.2651 1.08497 16.2745 1.12536V1.33736C16.2745 1.81808 16.1579 2.36931 15.9278 2.97564C15.6866 3.56271 15.3096 4.11524 14.809 4.61391C14.3407 5.0533 13.9075 5.3442 13.5247 5.4757C13.3983 5.51345 13.225 5.5506 13.0157 5.58405C12.8295 5.61305 12.6428 5.638 12.4555 5.6588Z" fill="black"/>
<path d="M12.6751 7.31455C11.1888 7.31455 10.1568 6 8.69065 6C7.22455 6 4.2041 7.3476 4.2041 12C4.2041 16.6524 6.8863 19.65 7.1863 20C7.48625 20.35 8.18005 21.2498 9.2549 21.2498C10.3298 21.2498 11.5066 20.3951 12.6751 20.3951C13.8436 20.3951 15.3144 21.2498 16.2746 21.2498C17.2348 21.2498 17.6298 20.8583 18.2833 20.1831C18.9367 19.508 20.1832 17.4476 20.6185 16.2111C19.9015 15.7843 18.0011 14.6256 18.0011 12C18.0011 10.2497 18.6407 8.7955 19.9201 7.63765C19.0808 6.5459 18.1074 6 16.9998 6C15.3385 6 14.1615 7.31455 12.6751 7.31455Z" fill="black" stroke="black" stroke-linejoin="round"/>
</svg>
