<svg width="32" height="32" viewBox="0 0 32 32" fill="none" xmlns="http://www.w3.org/2000/svg">
<path d="M32 15.427C32 6.90692 24.8366 0 16 0C7.16344 0 0 6.90692 0 15.427C0 23.1271 5.85096 29.5093 13.5 30.6667V19.8864H9.43751V15.427H13.5V12.0283C13.5 8.16186 15.8887 6.0262 19.5434 6.0262C21.294 6.0262 23.125 6.3275 23.125 6.3275V10.124H21.1074C19.1198 10.124 18.5 11.3132 18.5 12.5332V15.427H22.9375L22.2281 19.8864H18.5V30.6667C26.149 29.5093 32 23.1271 32 15.427Z" fill="#1877F2"/>
<path d="M22.2281 19.8866L22.9375 15.4272H18.5V12.5333C18.5 11.3134 19.1198 10.1242 21.1074 10.1242H23.125V6.32767C23.125 6.32767 21.294 6.02637 19.5434 6.02637C15.8887 6.02637 13.5 8.16203 13.5 12.0285V15.4272H9.4375V19.8866H13.5V30.6668C14.327 30.7918 15.1629 30.8545 16 30.8542C16.8505 30.8542 17.6854 30.7901 18.5 30.6668V19.8866H22.2281Z" fill="white"/>
</svg>
