<svg width="18" height="18" viewBox="0 0 18 18" fill="none" xmlns="http://www.w3.org/2000/svg">
<g clip-path="url(#clip0_287_3851)">
<g filter="url(#filter0_d_287_3851)">
<path d="M0 4H18V15.0323H0V4Z" fill="#1E50A0"/>
<path d="M10.1611 7.44206V8.35484H13.1169L17.9998 5.3619V4H15.7777L10.1611 7.44206Z" fill="white"/>
<path d="M17.9998 4H16.8888L10.1611 8.12345V8.35484H11.172L17.9998 4.17013V4Z" fill="#D22F27"/>
<path d="M15.778 15.0326H17.9998V13.6704L13.1172 10.6777H10.1611V11.5902L15.778 15.0326Z" fill="white"/>
<path d="M17.9987 15.0326V14.3512L12.005 10.6777H10.6152L17.7206 15.0326H17.9987Z" fill="#D22F27"/>
<path d="M7.83871 11.5905V10.6777H4.88294L0 13.6707V15.0326H2.22213L7.83871 11.5905Z" fill="white"/>
<path d="M0 15.0326H1.11106L7.83871 10.9091V10.6777H6.82781L0 14.8624V15.0326Z" fill="#D22F27"/>
<path d="M2.22184 4H0V5.36219L4.88265 8.35484H7.83871V7.44235L2.22184 4Z" fill="white"/>
<path d="M0 4V4.68139L5.994 8.35484H7.38348L0.278129 4H0Z" fill="#D22F27"/>
<path d="M0 8.06445H18V10.9677H0V8.06445Z" fill="white"/>
<path d="M7.54883 4H10.4521V15.0323H7.54883V4Z" fill="white"/>
<path d="M0 8.64453H18V10.3865H0V8.64453Z" fill="#D22F27"/>
<path d="M8.12891 4H9.87084V15.0323H8.12891V4Z" fill="#D22F27"/>
</g>
</g>
<defs>
<filter id="filter0_d_287_3851" x="-2" y="2" width="22" height="15.0322" filterUnits="userSpaceOnUse" color-interpolation-filters="sRGB">
<feFlood flood-opacity="0" result="BackgroundImageFix"/>
<feColorMatrix in="SourceAlpha" type="matrix" values="0 0 0 0 0 0 0 0 0 0 0 0 0 0 0 0 0 0 127 0" result="hardAlpha"/>
<feOffset/>
<feGaussianBlur stdDeviation="1"/>
<feComposite in2="hardAlpha" operator="out"/>
<feColorMatrix type="matrix" values="0 0 0 0 0 0 0 0 0 0 0 0 0 0 0 0 0 0 0.1 0"/>
<feBlend mode="normal" in2="BackgroundImageFix" result="effect1_dropShadow_287_3851"/>
<feBlend mode="normal" in="SourceGraphic" in2="effect1_dropShadow_287_3851" result="shape"/>
</filter>
<clipPath id="clip0_287_3851">
<rect width="18" height="18" fill="white"/>
</clipPath>
</defs>
</svg>
