<svg width="32" height="32" viewBox="0 0 32 32" fill="none" xmlns="http://www.w3.org/2000/svg">
<path d="M30.02 16.3335C30.02 15.2935 29.9238 14.2935 29.745 13.3335H15.5V19.0135H23.64C23.2825 20.8402 22.21 22.3868 20.6013 23.4268V27.1202H25.51C28.37 24.5602 30.02 20.8002 30.02 16.3335Z" fill="#4285F4"/>
<path d="M15.4996 30.6665C19.5833 30.6665 23.0071 29.3598 25.5096 27.1198L20.6008 23.4265C19.2533 24.3065 17.5346 24.8398 15.4996 24.8398C11.5671 24.8398 8.22582 22.2665 7.02957 18.7998H1.99707V22.5865C4.48582 27.3731 9.58707 30.6665 15.4996 30.6665Z" fill="#34A853"/>
<path d="M7.03 18.7868C6.7275 17.9068 6.54875 16.9734 6.54875 16.0001C6.54875 15.0268 6.7275 14.0934 7.03 13.2134V9.42676H1.9975C0.96625 11.4001 0.375 13.6268 0.375 16.0001C0.375 18.3734 0.96625 20.6001 1.9975 22.5734L5.91625 19.6134L7.03 18.7868Z" fill="#FBBC05"/>
<path d="M15.4996 7.1735C17.7271 7.1735 19.7071 7.92016 21.2883 9.36016L25.6196 5.16016C22.9933 2.78683 19.5833 1.3335 15.4996 1.3335C9.58707 1.3335 4.48582 4.62683 1.99707 9.42683L7.02957 13.2135C8.22582 9.74683 11.5671 7.1735 15.4996 7.1735Z" fill="#EA4335"/>
</svg>
