<svg width="18" height="18" viewBox="0 0 18 18" fill="none" xmlns="http://www.w3.org/2000/svg">
<g clip-path="url(#clip0_3376_31270)">
<path d="M14.0012 0.108643H3.91304C1.75193 0.108643 0 1.84173 0 3.97961V13.9593C0 16.0972 1.75193 17.8303 3.91304 17.8303H14.0012C16.1623 17.8303 17.9143 16.0972 17.9143 13.9593V3.97961C17.9143 1.84173 16.1623 0.108643 14.0012 0.108643Z" fill="#754A91"/>
<path d="M6.86633 12.5922C6.86633 12.4436 6.86633 12.2951 6.86633 12.1465C6.86739 12.1404 6.86717 12.1342 6.86568 12.1282C6.8642 12.1222 6.86148 12.1166 6.85768 12.1117C6.85389 12.1068 6.84911 12.1027 6.84363 12.0997C6.83817 12.0966 6.83211 12.0947 6.82587 12.0941C6.45024 11.9895 6.10354 11.8032 5.81161 11.5489C5.59889 11.3593 5.42179 11.1345 5.28836 10.8848C5.10027 10.5242 4.97512 10.1352 4.91804 9.73408C4.84734 9.23088 4.82276 8.72248 4.84465 8.21498C4.84947 7.97837 4.86179 7.74446 4.88924 7.50785C4.93297 7.05824 5.0487 6.61817 5.23212 6.20384C5.45861 5.6944 5.86952 5.28518 6.38559 5.05509C6.73714 4.89741 7.10698 4.7823 7.48696 4.7123C7.85956 4.6431 8.23681 4.60066 8.61573 4.58525C8.95728 4.57341 9.29922 4.57834 9.64029 4.60004C10.1284 4.62023 10.6121 4.69948 11.0804 4.83597C11.4276 4.93406 11.7579 5.08246 12.0604 5.27624C12.3551 5.47455 12.5934 5.7431 12.753 6.05663C12.9406 6.42282 13.0681 6.81572 13.1309 7.22084C13.1716 7.46136 13.1984 7.70395 13.2111 7.94746C13.2289 8.24926 13.2269 8.55241 13.2152 8.85288C13.2036 9.15332 13.1775 9.44506 13.1398 9.73946C13.0921 10.1814 12.9535 10.6092 12.7324 10.9971C12.4446 11.4878 11.9836 11.8584 11.4363 12.039C11.0621 12.1674 10.6757 12.2588 10.2828 12.3119C9.99551 12.3509 9.70749 12.3791 9.41808 12.3905C9.19659 12.4006 8.97509 12.3979 8.75357 12.3945C8.62808 12.3945 8.50327 12.3824 8.37845 12.3717C8.3662 12.3694 8.35354 12.3708 8.34207 12.3756C8.33059 12.3803 8.32083 12.3883 8.314 12.3986C8.06163 12.6957 7.79967 12.9847 7.53564 13.2724C7.48754 13.3249 7.43186 13.3702 7.37037 13.4068C7.33 13.4328 7.28397 13.4491 7.23599 13.4544C7.18802 13.4597 7.13944 13.4539 7.09419 13.4374C7.04893 13.4209 7.00827 13.3942 6.97548 13.3595C6.94269 13.3248 6.91868 13.2829 6.90542 13.2374C6.87928 13.1566 6.86631 13.0722 6.86701 12.9874C6.86633 12.8543 6.86633 12.7232 6.86633 12.5922ZM7.17149 13.1561L7.20373 13.1265L7.77635 12.5034C7.99671 12.2637 8.21684 12.0237 8.43675 11.7835C8.44755 11.7689 8.46215 11.7573 8.47901 11.75C8.49588 11.7427 8.51442 11.7399 8.53276 11.7419C8.6075 11.7493 8.68225 11.7519 8.7577 11.7526C9.01829 11.7526 9.27888 11.7526 9.53947 11.7345C9.77607 11.7163 10.012 11.6881 10.2465 11.6518C10.499 11.6087 10.749 11.5524 10.9954 11.4831C11.544 11.3386 11.9685 11.0294 12.2353 10.5286C12.3927 10.2207 12.4915 9.88722 12.5267 9.54454C12.5684 9.22155 12.5933 8.8967 12.6015 8.57123C12.6136 8.16237 12.5851 7.75333 12.5164 7.3499C12.4688 7.0576 12.383 6.7725 12.2613 6.50161C12.1063 6.16552 11.8869 5.88725 11.5488 5.70845C11.0304 5.43419 10.4694 5.31187 9.89127 5.24935C9.72737 5.23188 9.56347 5.22247 9.39889 5.21641C9.06188 5.19938 8.72416 5.20118 8.38737 5.22179C8.14515 5.23941 7.90424 5.27128 7.66594 5.31725C7.31547 5.37986 6.97644 5.49313 6.6599 5.65333C6.47639 5.74422 6.30991 5.8649 6.16752 6.01025C5.93673 6.26308 5.76745 6.56392 5.67238 6.89012C5.55963 7.27004 5.49807 7.66279 5.48929 8.05836C5.46722 8.45393 5.47227 8.85052 5.50437 9.24541C5.52435 9.48044 5.5645 9.71337 5.62439 9.94178C5.71349 10.2977 5.88635 10.6283 6.12911 10.907C6.39123 11.1914 6.72998 11.3974 7.10634 11.5012C7.15366 11.5153 7.17493 11.5315 7.17493 11.5839C7.1708 11.7775 7.17493 11.9711 7.17493 12.1647L7.17149 13.1561Z" fill="white"/>
<path d="M6.69176 7.15237C6.68694 7.00518 6.76855 6.8983 6.86732 6.80216C6.99754 6.67988 7.14103 6.57192 7.29523 6.4802C7.36554 6.43769 7.44915 6.42151 7.53066 6.4346C7.61216 6.44768 7.68612 6.48918 7.73893 6.55146C7.92548 6.74365 8.09245 6.95325 8.23749 7.17724C8.30929 7.278 8.36353 7.38976 8.39796 7.50796C8.41172 7.55408 8.41262 7.60297 8.40055 7.64954C8.38849 7.69613 8.36392 7.73869 8.32939 7.77279C8.25026 7.84891 8.16594 7.91966 8.07701 7.98453C8.03221 8.01953 7.99889 8.06667 7.9812 8.12009C7.96352 8.17353 7.96226 8.23086 7.97758 8.28498C8.0325 8.53913 8.15696 8.7738 8.3376 8.96389C8.55713 9.22655 8.83996 9.43146 9.16054 9.56009C9.23931 9.59979 9.32958 9.61189 9.41633 9.59437C9.46386 9.58167 9.50608 9.55462 9.53703 9.51707C9.58502 9.45726 9.63715 9.39945 9.68036 9.3356C9.7364 9.25593 9.82196 9.20089 9.91881 9.18217C10.0157 9.16347 10.1161 9.18258 10.1988 9.23544C10.4313 9.36763 10.6507 9.52065 10.8544 9.69252C10.9024 9.73283 10.9525 9.77184 11.0005 9.81283C11.0573 9.85529 11.0983 9.91485 11.1173 9.98236C11.1362 10.0498 11.132 10.1216 11.1054 10.1866C11.063 10.2958 11.0013 10.3968 10.923 10.485C10.8257 10.6175 10.7018 10.7292 10.5588 10.813C10.4905 10.8524 10.4137 10.8754 10.3347 10.8805C10.2556 10.8855 10.1764 10.8723 10.1035 10.8419C9.54863 10.623 9.03021 10.3242 8.56528 9.95534C8.11055 9.58841 7.71314 9.15813 7.38576 8.67821C7.11028 8.28091 6.89111 7.8488 6.73427 7.39369C6.71756 7.33864 6.70383 7.28276 6.69313 7.22631C6.69007 7.20178 6.68961 7.17701 6.69176 7.15237Z" fill="white"/>
<path d="M9.05913 6.43722C9.52335 6.44564 9.96983 6.61347 10.3207 6.91148C10.6716 7.20948 10.9047 7.61874 10.9793 8.06793C11.0093 8.23122 11.0254 8.39671 11.0273 8.56264C11.0273 8.60162 11.017 8.62986 10.9745 8.63388C10.932 8.63793 10.921 8.6023 10.921 8.56666C10.9274 8.23103 10.8571 7.89826 10.7153 7.59269C10.5959 7.34162 10.419 7.12093 10.1983 6.9478C9.97768 6.77468 9.71926 6.65379 9.44318 6.59452C9.2972 6.56139 9.14794 6.54426 8.99811 6.54342C8.98351 6.54368 8.96895 6.54188 8.95491 6.53806C8.94293 6.53475 8.93274 6.52701 8.92646 6.51648C8.9202 6.50595 8.91834 6.49343 8.92129 6.48159C8.92139 6.47597 8.9226 6.47042 8.92491 6.46527C8.9272 6.46012 8.93053 6.45548 8.93468 6.4516C8.93882 6.44771 8.94372 6.4447 8.94908 6.44268C8.95444 6.44069 8.96015 6.43974 8.96586 6.43991C8.99674 6.43589 9.02828 6.43722 9.05913 6.43722Z" fill="white"/>
<path d="M10.383 8.26003C10.3807 8.07329 10.3338 7.88967 10.246 7.72392C10.1583 7.55816 10.0321 7.41488 9.87763 7.30554C9.69733 7.18142 9.48775 7.10439 9.26866 7.08172C9.23162 7.077 9.19459 7.07499 9.15686 7.07096C9.11916 7.06692 9.09653 7.05147 9.09995 7.01383C9.10337 6.97618 9.12738 6.96273 9.16853 6.96542C9.77612 7.00173 10.2932 7.33848 10.4523 7.96562C10.4814 8.08655 10.4959 8.2104 10.4955 8.33464V8.36826C10.4955 8.40186 10.4736 8.42404 10.44 8.42336C10.4325 8.42313 10.4252 8.42139 10.4184 8.41827C10.4117 8.41517 10.4057 8.41074 10.4007 8.40527C10.3958 8.39979 10.392 8.39338 10.3897 8.38645C10.3874 8.3795 10.3865 8.37217 10.3871 8.36489C10.3817 8.3333 10.383 8.30104 10.383 8.26003Z" fill="white"/>
<path d="M9.31845 7.51131C9.65174 7.53349 9.88422 7.69348 9.948 8.04097C9.95573 8.08551 9.96123 8.13037 9.96445 8.17541C9.96445 8.21172 9.95622 8.24263 9.91578 8.24263C9.87531 8.24263 9.8616 8.21575 9.86021 8.17541C9.85984 8.04221 9.81797 7.91228 9.74022 7.80302C9.65849 7.70408 9.54116 7.63961 9.4124 7.62289C9.38362 7.6176 9.35455 7.61402 9.32532 7.61213C9.2773 7.61213 9.25056 7.58861 9.25674 7.55232C9.2629 7.51601 9.2917 7.50929 9.31845 7.51131Z" fill="white"/>
</g>
<defs>
<clipPath id="clip0_3376_31270">
<rect width="18" height="18" fill="white"/>
</clipPath>
</defs>
</svg>
