<svg width="19" height="18" viewBox="0 0 19 18" fill="none" xmlns="http://www.w3.org/2000/svg">
<rect x="0.5" width="18" height="18" rx="5" fill="#3984FD"/>
<path d="M4.25 6.75C4.25 6.33579 4.58579 6 5 6H9.5C10.7427 6 11.75 7.00736 11.75 8.25V11.25C11.75 11.6642 11.4142 12 11 12H6.5C5.25736 12 4.25 10.9927 4.25 9.75V6.75Z" fill="white"/>
<path d="M12.125 8.81362C12.125 8.45032 12.2568 8.09932 12.4961 7.82587L13.7642 6.37669C14.1062 5.98581 14.75 6.22771 14.75 6.7471V11.253C14.75 11.7724 14.1062 12.0142 13.7642 11.6233L12.4961 10.1742C12.2568 9.90075 12.125 9.54975 12.125 9.18645V8.81362Z" fill="white"/>
</svg>
